<svg width="318" height="24" viewBox="0 0 318 24" xmlns="http://www.w3.org/2000/svg"><g id="Page-1" stroke="none" stroke-width="1" fill="none" fill-rule="evenodd"><g id="envato-elements" transform="translate(-614 -1)"><g id="-Resources" transform="translate(616.65 .88)" fill-rule="nonzero"><g id="Desktop"><g id="Imported-Layers-Copy-8" transform="translate(0 .335)"><path d="M12.64 3.753c-.481-.268-1.864-.103-3.525.411-2.906 1.987-5.36 4.914-5.53 9.614-.032.113-.318-.015-.375-.05-.785-1.504-1.096-3.088-.44-5.373.122-.204-.278-.454-.35-.383-.143.144-.743.783-1.141 1.474-1.974 3.425-.683 7.813 2.77 9.733a7.158 7.158 0 009.737-2.771c2.224-3.987.159-11.927-1.145-12.655" id="Fill-1" fill="#7AAC41"/><path d="M25.002 5.666c-4.095 0-7.067 3.044-7.067 7.238 0 4.228 2.964 7.181 7.21 7.181 2.143 0 3.841-.67 5.19-2.05.404-.436.448-.855.448-1.016 0-.684-.509-1.18-1.21-1.18-.353 0-.648.133-.987.446-.764.712-1.77 1.44-3.442 1.44-2.323 0-4.213-1.744-4.332-3.984h9.248c1.005 0 1.493-.47 1.493-1.437 0-.285 0-.49-.057-.896-.498-3.596-2.925-5.742-6.494-5.742zm0 2.245c2.22 0 3.644 1.415 3.733 3.699h-7.92c.208-2.113 1.995-3.699 4.187-3.699z" id="Fill-2" fill="#131412"/><path d="M40.385 5.666c-1.86 0-3.702 1.07-4.422 2.555v-.918c0-1.422-1.102-1.494-1.323-1.494-.652 0-1.35.393-1.35 1.494v11.088c0 1.476 1.172 1.55 1.408 1.55.235 0 1.408-.074 1.408-1.55v-5.944c0-2.586 1.466-4.393 3.564-4.393 2.032 0 3.02 1.334 3.02 4.078v6.259c0 1.476 1.174 1.55 1.41 1.55.234 0 1.407-.074 1.407-1.55v-7.144c0-2.698-1.345-5.581-5.122-5.581" id="Fill-3" fill="#131412"/><path d="M58.253 5.809c-.65 0-1.122.38-1.404 1.127l-3.854 9.692-3.825-9.692c-.3-.758-.767-1.127-1.433-1.127-.776 0-1.408.606-1.408 1.351 0 .185.02.424.177.797l4.429 10.459c.528 1.262 1.396 1.526 2.031 1.526.635 0 1.504-.264 2.033-1.526L59.457 7.9c.153-.368.176-.639.176-.767 0-.754-.594-1.323-1.38-1.323" id="Fill-4" fill="#131412"/><path d="M66.445 5.666c-1.802 0-3.48.502-4.725 1.412-.422.291-.627.655-.627 1.111 0 .63.48 1.123 1.094 1.123.266 0 .563-.107.836-.298 1.07-.713 2.075-1.045 3.164-1.045 2.083 0 3.278 1.059 3.278 2.906v.306c-4.675.005-9.43.57-9.43 4.637 0 2.928 2.502 4.238 4.98 4.238 1.975 0 3.552-.782 4.564-2.263v.712c0 1.06.712 1.437 1.324 1.437.128 0 1.265-.04 1.265-1.437v-7.458c0-3.37-2.14-5.381-5.723-5.381zm2.428 7.59h.592v.648c0 2.373-1.511 3.907-3.85 3.907-.634 0-2.706-.148-2.706-2.05 0-2.246 3.404-2.506 5.964-2.506z" id="Fill-5" fill="#131412"/><path d="M79.503 8.368c1.233 0 1.295-.958 1.295-1.15 0-.571-.34-1.18-1.295-1.18H76.97V3.474c0-1.145-.743-1.552-1.38-1.552-.235 0-1.408.075-1.408 1.552v12.174c0 2.809 1.385 4.294 4.008 4.294.678 0 1.34-.12 1.772-.321.496-.248.78-.654.78-1.116 0-.65-.472-1.123-1.124-1.123-.125 0-.304.03-.5.088a2.3 2.3 0 01-.585.084c-1.066 0-1.563-.697-1.563-2.193V8.368h2.534" id="Fill-6" fill="#131412"/><path d="M88.819 5.666c-4.26 0-7.352 3.02-7.352 7.18 0 2.026.748 3.872 2.108 5.198 1.349 1.317 3.21 2.041 5.244 2.041 4.207 0 7.38-3.112 7.38-7.239 0-4.16-3.104-7.18-7.38-7.18zm0 12.03c-2.923 0-4.45-2.44-4.45-4.85 0-3.312 2.306-4.82 4.45-4.82 2.142 0 4.45 1.508 4.45 4.82 0 3.333-2.308 4.85-4.45 4.85z" id="Fill-7" fill="#131412"/><path d="M104.746 5.352a5.416 5.416 0 00-3.053.933c-.921.614-1.654 1.479-2.177 2.57-.518 1.077-.78 2.278-.78 3.567v.554c0 1.292.271 2.486.808 3.55.54 1.073 1.301 1.93 2.26 2.547.963.62 2.036.935 3.188.935 2.091 0 3.694-.786 4.767-2.336a.421.421 0 00-.103-.582l-.468-.332a.42.42 0 00-.575.084c-.44.565-.951.987-1.516 1.255-.568.27-1.276.406-2.105.406a4.267 4.267 0 01-2.373-.718c-.734-.48-1.318-1.155-1.738-2.004a6.298 6.298 0 01-.64-2.819v-.304h9.566a.42.42 0 00.42-.421v-.702c0-1.822-.513-3.32-1.523-4.454-1.022-1.147-2.354-1.729-3.958-1.729zm-4.408 5.8c.2-1.189.675-2.19 1.415-2.98.827-.884 1.806-1.314 2.993-1.314.743 0 1.423.195 2.02.58.6.386 1.08.939 1.426 1.641.315.64.49 1.336.523 2.073h-8.377z" id="Fill-8" fill="#7AAC41"/><path d="M113.067.172h-.665a.42.42 0 00-.42.42v18.913c0 .232.188.42.42.42h.665a.42.42 0 00.42-.42V.592a.42.42 0 00-.42-.42" id="Fill-9" fill="#7AAC41"/><path d="M121.236 5.352a5.416 5.416 0 00-3.053.933c-.921.614-1.654 1.479-2.177 2.57-.518 1.077-.78 2.278-.78 3.567v.554c0 1.292.271 2.486.808 3.55.54 1.074 1.301 1.93 2.259 2.547a5.8 5.8 0 003.19.935c2.09 0 3.693-.786 4.765-2.336a.42.42 0 00-.102-.582l-.468-.332a.42.42 0 00-.575.084c-.44.564-.951.986-1.517 1.255-.568.27-1.276.406-2.104.406a4.269 4.269 0 01-2.374-.718c-.734-.48-1.318-1.155-1.737-2.004a6.302 6.302 0 01-.64-2.819v-.304h9.566a.42.42 0 00.42-.421v-.702c0-1.822-.513-3.32-1.523-4.454-1.022-1.147-2.354-1.729-3.958-1.729zm-4.408 5.8c.2-1.189.675-2.19 1.415-2.98.827-.884 1.806-1.314 2.993-1.314.753 0 1.413.19 2.02.58.6.386 1.08.939 1.426 1.641a5.2 5.2 0 01.523 2.073h-8.377z" id="Fill-10" fill="#7AAC41"/><path d="M143.42 5.476c-1.176 0-2.255.31-3.207.922a5.376 5.376 0 00-1.581 1.544c-.288-.713-.713-1.266-1.27-1.653-.78-.54-1.782-.813-2.979-.813a5.15 5.15 0 00-3.025.963c-.483.34-.907.759-1.27 1.25V6.143a.42.42 0 00-.421-.42h-.677a.42.42 0 00-.42.42v13.322a.42.42 0 00.42.421h.677a.42.42 0 00.42-.42v-8.373a6.08 6.08 0 011.017-2.354c.852-1.183 1.912-1.757 3.242-1.757 1.133 0 1.957.281 2.45.837.506.57.766 1.48.774 2.703v8.943a.42.42 0 00.42.421h.665a.42.42 0 00.42-.42v-8.827c.042-.596.313-1.234.803-1.894.87-1.164 2.018-1.74 3.51-1.763 1.144-.02 1.931.272 2.437.877.519.62.782 1.62.782 2.971v8.635a.42.42 0 00.42.421h.665a.42.42 0 00.42-.42V10.77c-.008-1.72-.4-3.042-1.167-3.93-.782-.906-1.968-1.364-3.525-1.364" id="Fill-11" fill="#7AAC41"/><path d="M155.949 5.352a5.416 5.416 0 00-3.053.933c-.921.614-1.654 1.479-2.177 2.57-.518 1.077-.78 2.278-.78 3.567v.554c0 1.292.271 2.486.808 3.55.54 1.073 1.3 1.93 2.26 2.548.963.62 2.036.934 3.188.934 2.09 0 3.694-.786 4.767-2.336a.421.421 0 00-.103-.582l-.468-.332a.42.42 0 00-.575.084c-.441.565-.952.987-1.517 1.255-.568.27-1.275.406-2.104.406a4.265 4.265 0 01-2.373-.718c-.734-.48-1.318-1.154-1.739-2.004a6.307 6.307 0 01-.639-2.819v-.304h9.566a.42.42 0 00.42-.421v-.702c0-1.822-.513-3.32-1.523-4.454-1.022-1.147-2.355-1.729-3.958-1.729zm-4.408 5.8c.2-1.189.674-2.19 1.415-2.98.827-.884 1.806-1.314 2.993-1.314.753 0 1.414.19 2.02.58.6.386 1.08.939 1.426 1.641.315.64.49 1.336.523 2.073h-8.377z" id="Fill-12" fill="#7AAC41"/><path d="M169.123 5.452a5.18 5.18 0 00-3.05.976c-.48.34-.899.747-1.257 1.22v-1.53a.42.42 0 00-.42-.42h-.666a.42.42 0 00-.42.42v13.323c0 .232.188.42.42.42h.665a.42.42 0 00.42-.42v-8.476c.28-1.18.81-2.157 1.578-2.902.766-.744 1.648-1.105 2.693-1.105 1.112 0 1.923.295 2.412.877.507.604.768 1.58.776 2.897v8.709c0 .232.188.42.42.42h.665a.42.42 0 00.42-.42v-8.694c-.008-1.729-.397-3.052-1.154-3.935-.774-.902-1.952-1.36-3.502-1.36" id="Fill-13" fill="#7AAC41"/><path d="M182.084 18.396c-1.341.192-2.098.14-2.456-.387-.258-.38-.39-1.005-.39-1.86V7.105h2.61a.42.42 0 00.42-.42V6.02a.42.42 0 00-.42-.42h-2.61V2.424a.42.42 0 00-.42-.421h-.677a.42.42 0 00-.42.42V5.6h-2.042a.42.42 0 00-.42.42v.665c0 .232.188.42.42.42h2.042v9.134c.01 1.266.248 2.182.729 2.8.5.644 1.312.97 2.412.97.713 0 1.216-.057 1.536-.173a.42.42 0 00.27-.468l-.11-.628a.422.422 0 00-.474-.343" id="Fill-14" fill="#7AAC41"/><path d="M193.56 14.142c-.326-.534-.849-.997-1.552-1.376-.67-.361-1.584-.677-2.715-.939-1.065-.246-1.88-.503-2.425-.763-.51-.244-.876-.512-1.088-.796-.198-.265-.299-.655-.299-1.159 0-.628.28-1.142.853-1.571.604-.451 1.452-.68 2.52-.68 1.112 0 2.018.272 2.693.808.656.52.974 1.145.974 1.912 0 .231.188.42.42.42h.678a.42.42 0 00.42-.42c0-1.296-.493-2.341-1.465-3.107-.943-.742-2.194-1.119-3.72-1.119-1.41 0-2.58.349-3.475 1.035-.931.713-1.403 1.637-1.403 2.747 0 1.093.377 1.969 1.12 2.604.709.606 1.902 1.08 3.646 1.452 2.56.541 3.804 1.486 3.804 2.889 0 .653-.31 1.201-.946 1.676-.665.496-1.556.748-2.648.748-1.204 0-2.162-.239-2.847-.708-.653-.45-.999-1.06-1.055-1.869a.42.42 0 00-.42-.39h-.665a.42.42 0 00-.42.42c0 1.203.52 2.197 1.543 2.954.985.729 2.285 1.098 3.864 1.098 1.48 0 2.705-.35 3.636-1.043.972-.721 1.463-1.688 1.463-2.874 0-.757-.166-1.412-.492-1.949" id="Fill-15" fill="#7AAC41"/></g></g></g><g id="g4834" transform="translate(.313 2.71)"><path id="rect11" fill="#81B441" fill-rule="nonzero" d="M817.549.074H930V20H817.549z"/><path d="M826.696 15a.313.313 0 01-.322-.322V6.404h-2.702a.313.313 0 01-.322-.322v-.546a.33.33 0 01.091-.245.313.313 0 01.231-.091h6.72c.103 0 .182.03.238.091.056.06.084.142.084.245v.546a.313.313 0 01-.322.322h-2.688v8.274c0 .093-.033.17-.098.231a.337.337 0 01-.238.091h-.672zm5.922 0a.29.29 0 01-.224-.091.327.327 0 01-.084-.231V5.536c0-.103.028-.184.084-.245a.29.29 0 01.224-.091h5.754a.33.33 0 01.245.091c.06.06.091.142.091.245v.504a.29.29 0 01-.091.224.347.347 0 01-.245.084h-4.774V9.47h4.466a.33.33 0 01.245.091c.06.06.091.142.091.245v.476c0 .093-.03.17-.091.231a.331.331 0 01-.245.091h-4.466v3.234h4.886a.33.33 0 01.245.091c.06.06.091.142.091.245v.504c0 .093-.033.17-.098.231a.337.337 0 01-.238.091h-5.866zm8.484 0a.313.313 0 01-.322-.322V5.536c0-.103.028-.184.084-.245a.308.308 0 01.238-.091h.658c.168 0 .285.07.35.21l2.982 5.726 3.01-5.726a.36.36 0 01.336-.21h.658c.103 0 .182.03.238.091.056.06.084.142.084.245v9.142a.313.313 0 01-.322.322h-.644a.29.29 0 01-.224-.091.327.327 0 01-.084-.231V7.72l-2.394 4.634c-.093.196-.243.294-.448.294h-.42c-.196 0-.345-.098-.448-.294l-2.38-4.634v6.958a.313.313 0 01-.322.322h-.63zm11.088 0a.29.29 0 01-.224-.091.327.327 0 01-.084-.231V5.536c0-.103.028-.184.084-.245a.29.29 0 01.224-.091h3.542c1.055 0 1.883.254 2.485.763.602.509.903 1.248.903 2.219 0 .97-.301 1.708-.903 2.212-.602.504-1.43.756-2.485.756h-2.52v3.528a.313.313 0 01-.322.322h-.7zm3.472-4.984c1.41 0 2.114-.611 2.114-1.834 0-.597-.175-1.055-.525-1.372-.35-.317-.88-.476-1.589-.476h-2.45v3.682h2.45zM861.164 15a.29.29 0 01-.224-.091.327.327 0 01-.084-.231V5.522c0-.093.028-.17.084-.231a.29.29 0 01.224-.091h.7a.29.29 0 01.224.091c.056.06.084.138.084.231v8.302h4.676a.33.33 0 01.245.091c.06.06.091.138.091.231v.532c0 .093-.033.17-.098.231a.337.337 0 01-.238.091h-5.684zm6.874 0a.269.269 0 01-.196-.084.269.269 0 01-.084-.196l.028-.154 3.472-9.058c.075-.205.224-.308.448-.308h.896c.224 0 .373.103.448.308l3.472 9.058.028.154a.26.26 0 01-.091.196.292.292 0 01-.203.084h-.658a.37.37 0 01-.35-.238l-.784-2.016h-4.634l-.77 2.016c-.075.159-.191.238-.35.238h-.672zm2.198-3.416h3.836l-1.918-5.026-1.918 5.026zM879.49 15a.313.313 0 01-.322-.322V6.404h-2.702a.313.313 0 01-.322-.322v-.546a.33.33 0 01.091-.245.313.313 0 01.231-.091h6.72c.103 0 .182.03.238.091.056.06.084.142.084.245v.546a.313.313 0 01-.322.322h-2.688v8.274c0 .093-.033.17-.098.231a.337.337 0 01-.238.091h-.672zm5.922 0a.29.29 0 01-.224-.091.327.327 0 01-.084-.231V5.536c0-.103.028-.184.084-.245a.29.29 0 01.224-.091h5.754a.33.33 0 01.245.091c.06.06.091.142.091.245v.504a.29.29 0 01-.091.224.347.347 0 01-.245.084h-4.774V9.47h4.466a.33.33 0 01.245.091c.06.06.091.142.091.245v.476c0 .093-.03.17-.091.231a.331.331 0 01-.245.091h-4.466v3.234h4.886a.33.33 0 01.245.091c.06.06.091.142.091.245v.504c0 .093-.033.17-.098.231a.337.337 0 01-.238.091h-5.866zm11.914 0a.29.29 0 01-.224-.091.327.327 0 01-.084-.231V5.536c0-.103.028-.184.084-.245a.29.29 0 01.224-.091h.658a.33.33 0 01.245.091c.06.06.091.142.091.245v3.486l3.794-3.598a.743.743 0 01.546-.224h.7c.075 0 .14.028.196.084a.269.269 0 01.084.196.246.246 0 01-.07.182l-4.368 4.228 4.662 4.634c.047.056.07.121.07.196 0 .075-.028.14-.084.196a.269.269 0 01-.196.084h-.728a.631.631 0 01-.308-.063 1.95 1.95 0 01-.238-.161l-4.06-3.962v3.864c0 .093-.033.17-.098.231a.337.337 0 01-.238.091h-.658zm8.372 0a.29.29 0 01-.224-.091.327.327 0 01-.084-.231V5.522c0-.093.028-.17.084-.231a.29.29 0 01.224-.091h.7c.103 0 .182.028.238.084.056.056.084.135.084.238v9.156a.313.313 0 01-.322.322h-.7zm5.95 0a.313.313 0 01-.322-.322V6.404h-2.702a.313.313 0 01-.322-.322v-.546a.33.33 0 01.091-.245.313.313 0 01.231-.091h6.72c.103 0 .182.03.238.091.056.06.084.142.084.245v.546a.313.313 0 01-.322.322h-2.688v8.274c0 .093-.033.17-.098.231a.337.337 0 01-.238.091h-.672zm8.68.14c-.765 0-1.43-.121-1.995-.364-.565-.243-.994-.562-1.288-.959a2.272 2.272 0 01-.469-1.281c0-.075.028-.14.084-.196a.285.285 0 01.21-.084h.686c.168 0 .285.093.35.28.084.392.324.73.721 1.015.397.285.964.427 1.701.427.793 0 1.386-.14 1.778-.42.392-.28.588-.667.588-1.162 0-.317-.096-.579-.287-.784-.191-.205-.476-.385-.854-.539-.378-.154-.945-.343-1.701-.567-.719-.205-1.29-.425-1.715-.658-.425-.233-.744-.52-.959-.861-.215-.34-.322-.772-.322-1.295 0-.504.135-.954.406-1.351.27-.397.663-.71 1.176-.938.513-.229 1.12-.343 1.82-.343.728 0 1.351.128 1.869.385s.912.579 1.183.966c.27.387.415.777.434 1.169a.285.285 0 01-.294.294h-.7a.355.355 0 01-.21-.07.382.382 0 01-.14-.21c-.056-.401-.28-.733-.672-.994s-.882-.392-1.47-.392c-.635 0-1.139.124-1.512.371s-.56.614-.56 1.099c0 .327.086.593.259.798.173.205.439.387.798.546.36.159.884.34 1.575.546.793.224 1.416.448 1.869.672.453.224.791.502 1.015.833.224.331.336.758.336 1.281 0 .877-.334 1.561-1.001 2.051-.667.49-1.57.735-2.709.735z" id="TEMPLATE-KITS" fill="#FFF"/></g></g></g></svg>