<svg width="253" height="27" viewBox="0 0 253 27" xmlns="http://www.w3.org/2000/svg"><g id="-Resources" stroke="none" stroke-width="1" fill="none" fill-rule="evenodd"><g id="Desktop" transform="translate(-102 -1229)"><g id="Imported-Layers-Copy-8" transform="translate(102 1229.436)"><path d="M16.45 4.883c-.628-.348-2.427-.133-4.588.536-3.783 2.585-6.975 6.394-7.198 12.51-.04.147-.413-.02-.487-.064-1.021-1.958-1.426-4.02-.573-6.993.159-.265-.36-.59-.455-.498-.186.188-.967 1.019-1.485 1.918C-.905 16.75.775 22.46 5.27 24.958c4.493 2.503 10.168.888 12.67-3.607 2.894-5.187.207-15.52-1.49-16.468" id="Fill-1" fill="#7AAC41"/><path d="M32.535 7.373c-5.328 0-9.196 3.961-9.196 9.419 0 5.502 3.857 9.345 9.381 9.345 2.79 0 5-.873 6.756-2.669.525-.566.581-1.112.581-1.321 0-.89-.661-1.536-1.573-1.536-.46 0-.844.173-1.285.581-.994.927-2.304 1.874-4.479 1.874-3.023 0-5.482-2.27-5.637-5.185h12.034c1.308 0 1.944-.612 1.944-1.87 0-.37 0-.638-.075-1.165-.648-4.68-3.807-7.473-8.45-7.473zm0 2.922c2.89 0 4.743 1.841 4.857 4.813H27.087c.27-2.75 2.596-4.813 5.448-4.813z" id="Fill-2" fill="#131412"/><path d="M52.553 7.373c-2.42 0-4.818 1.392-5.754 3.325V9.504c0-1.851-1.434-1.945-1.722-1.945-.849 0-1.758.511-1.758 1.945v14.428c0 1.921 1.527 2.018 1.833 2.018.306 0 1.833-.097 1.833-2.018v-7.735c0-3.365 1.907-5.716 4.638-5.716 2.644 0 3.93 1.735 3.93 5.307v8.144c0 1.921 1.527 2.018 1.834 2.018.305 0 1.832-.097 1.832-2.018v-9.297c0-3.51-1.751-7.262-6.666-7.262" id="Fill-3" fill="#131412"/><path d="M75.805 7.56c-.847 0-1.46.494-1.827 1.466l-5.015 12.611-4.977-12.611c-.39-.987-1-1.467-1.865-1.467-1.01 0-1.833.79-1.833 1.759 0 .24.027.55.23 1.037l5.764 13.61c.687 1.641 1.816 1.985 2.643 1.985.827 0 1.957-.344 2.646-1.985l5.8-13.685c.2-.48.23-.832.23-1 0-.98-.773-1.72-1.796-1.72" id="Fill-4" fill="#131412"/><path d="M86.465 7.373c-2.345 0-4.529.653-6.149 1.838-.549.379-.816.851-.816 1.446 0 .818.625 1.46 1.424 1.46.346 0 .733-.138 1.088-.387 1.392-.928 2.7-1.36 4.117-1.36 2.71 0 4.266 1.378 4.266 3.782v.398c-6.084.006-12.272.742-12.272 6.034 0 3.81 3.256 5.515 6.482 5.515 2.57 0 4.621-1.018 5.938-2.945v.927c0 1.38.927 1.87 1.723 1.87.167 0 1.646-.053 1.646-1.87v-9.706c0-4.384-2.785-7.002-7.447-7.002zm3.16 9.876h.77v.844c0 3.089-1.966 5.084-5.01 5.084-.825 0-3.52-.192-3.52-2.667 0-2.923 4.428-3.261 7.76-3.261z" id="Fill-5" fill="#131412"/><path d="M103.458 10.89c1.604 0 1.685-1.248 1.685-1.498 0-.742-.443-1.535-1.685-1.535h-3.298V4.52c0-1.49-.967-2.02-1.795-2.02-.307 0-1.833.098-1.833 2.02v15.841c0 3.656 1.803 5.588 5.216 5.588.883 0 1.743-.156 2.305-.418.646-.322 1.015-.85 1.015-1.451 0-.847-.614-1.461-1.462-1.461-.163 0-.396.04-.652.114a2.979 2.979 0 01-.76.109c-1.388 0-2.034-.906-2.034-2.853v-9.1h3.298" id="Fill-6" fill="#131412"/><path d="M115.58 7.373c-5.544 0-9.567 3.93-9.567 9.344 0 2.636.974 5.038 2.743 6.764 1.756 1.713 4.178 2.656 6.824 2.656 5.475 0 9.604-4.05 9.604-9.42 0-5.414-4.04-9.344-9.604-9.344zm0 15.656c-3.803 0-5.79-3.175-5.79-6.312 0-4.31 3-6.273 5.79-6.273 2.788 0 5.79 1.963 5.79 6.273 0 4.337-3.002 6.312-5.79 6.312z" id="Fill-7" fill="#131412"/><path d="M136.306 6.965a7.048 7.048 0 00-3.973 1.214c-1.198.799-2.152 1.924-2.833 3.343-.673 1.403-1.015 2.965-1.015 4.642v.722c0 1.68.354 3.235 1.052 4.62.703 1.396 1.693 2.51 2.94 3.314a7.537 7.537 0 004.15 1.217c2.72 0 4.807-1.023 6.202-3.04a.548.548 0 00-.133-.757l-.61-.433a.547.547 0 00-.747.11c-.574.735-1.239 1.284-1.974 1.632-.739.351-1.66.528-2.738.528a5.552 5.552 0 01-3.089-.933c-.955-.626-1.715-1.503-2.261-2.608-.553-1.118-.833-2.353-.833-3.668v-.397h12.448a.548.548 0 00.547-.547v-.914c0-2.37-.667-4.32-1.982-5.795-1.33-1.493-3.064-2.25-5.15-2.25zm-5.735 7.547c.26-1.547.877-2.85 1.84-3.878 1.077-1.15 2.35-1.71 3.895-1.71.968 0 1.852.254 2.629.754.782.504 1.406 1.223 1.856 2.137.41.832.637 1.737.68 2.697h-10.9z" id="Fill-8" fill="#7AAC41"/><path d="M147.134.223h-.865a.547.547 0 00-.547.547v24.611c0 .303.245.547.547.547h.865a.547.547 0 00.547-.547V.771a.547.547 0 00-.547-.548" id="Fill-9" fill="#7AAC41"/><path d="M157.765 6.965a7.048 7.048 0 00-3.973 1.214c-1.199.799-2.153 1.924-2.833 3.343-.674 1.403-1.016 2.965-1.016 4.642v.722c0 1.68.354 3.235 1.053 4.62.703 1.396 1.693 2.511 2.939 3.314a7.542 7.542 0 004.15 1.217c2.72 0 4.807-1.023 6.202-3.04a.547.547 0 00-.133-.757l-.61-.433a.547.547 0 00-.747.11c-.573.734-1.238 1.283-1.974 1.632-.74.351-1.66.528-2.738.528a5.555 5.555 0 01-3.09-.933c-.954-.626-1.715-1.503-2.26-2.608-.553-1.117-.832-2.352-.832-3.668v-.397h12.447a.548.548 0 00.547-.547v-.914c0-2.37-.667-4.32-1.981-5.795-1.33-1.493-3.064-2.25-5.151-2.25zm-5.736 7.547c.26-1.547.878-2.85 1.841-3.878 1.077-1.15 2.35-1.71 3.895-1.71.98 0 1.839.247 2.627.754.782.504 1.407 1.223 1.857 2.137.408.832.637 1.738.681 2.697h-10.9z" id="Fill-10" fill="#7AAC41"/><path d="M186.634 7.125c-1.531 0-2.935.404-4.174 1.2a6.996 6.996 0 00-2.058 2.01c-.375-.928-.928-1.648-1.653-2.15-1.013-.703-2.318-1.06-3.876-1.06a6.7 6.7 0 00-3.936 1.254 7.243 7.243 0 00-1.654 1.628V7.993a.547.547 0 00-.547-.547h-.88a.547.547 0 00-.548.547v17.336c0 .302.245.548.547.548h.88a.547.547 0 00.548-.548V14.434a7.91 7.91 0 011.323-3.064c1.108-1.538 2.488-2.286 4.219-2.286 1.474 0 2.547.367 3.187 1.09.66.742.998 1.926 1.008 3.518v11.637c0 .302.245.548.547.548h.866a.548.548 0 00.547-.548l-.002-11.486c.056-.776.408-1.605 1.046-2.465 1.132-1.514 2.626-2.264 4.568-2.294 1.489-.026 2.512.354 3.171 1.142.675.806 1.018 2.107 1.018 3.866V25.33c0 .302.245.548.547.548h.865a.547.547 0 00.547-.548V14.015c-.011-2.24-.522-3.959-1.519-5.114-1.018-1.179-2.561-1.776-4.587-1.776" id="Fill-11" fill="#7AAC41"/><path d="M202.937 6.965a7.048 7.048 0 00-3.973 1.214c-1.199.799-2.153 1.924-2.833 3.343-.674 1.403-1.016 2.965-1.016 4.642v.722c0 1.68.354 3.235 1.052 4.62.704 1.396 1.693 2.51 2.94 3.314a7.55 7.55 0 004.15 1.217c2.72 0 4.807-1.023 6.203-3.04a.548.548 0 00-.134-.757l-.61-.433a.547.547 0 00-.747.11c-.574.735-1.238 1.284-1.974 1.633-.739.35-1.66.527-2.738.527a5.55 5.55 0 01-3.089-.933c-.953-.625-1.714-1.503-2.261-2.608-.553-1.118-.832-2.353-.832-3.668v-.397h12.447a.548.548 0 00.547-.547v-.914c0-2.37-.667-4.32-1.981-5.795-1.33-1.493-3.064-2.25-5.151-2.25zm-5.736 7.547c.26-1.547.877-2.85 1.84-3.878 1.077-1.15 2.351-1.71 3.896-1.71.98 0 1.84.247 2.628.754.781.504 1.406 1.223 1.856 2.137.41.833.638 1.738.68 2.697h-10.9z" id="Fill-12" fill="#7AAC41"/><path d="M220.08 7.095a6.74 6.74 0 00-3.969 1.27 7.48 7.48 0 00-1.636 1.586V7.962a.547.547 0 00-.547-.547h-.866a.547.547 0 00-.547.547V25.3c0 .302.246.547.547.547h.866a.548.548 0 00.547-.547V14.27c.362-1.537 1.052-2.806 2.052-3.777.998-.967 2.145-1.437 3.505-1.437 1.447 0 2.503.383 3.139 1.14.66.787 1 2.057 1.01 3.77V25.3c0 .302.244.547.546.547h.865a.548.548 0 00.548-.547V13.985c-.012-2.25-.517-3.972-1.503-5.121-1.007-1.174-2.54-1.769-4.556-1.769" id="Fill-13" fill="#7AAC41"/><path d="M236.947 23.94c-1.746.248-2.73.18-3.197-.505-.335-.494-.506-1.308-.506-2.42V9.246h3.395a.547.547 0 00.547-.548v-.864a.547.547 0 00-.547-.547h-3.395V3.154a.547.547 0 00-.547-.548h-.881a.547.547 0 00-.547.548v4.132h-2.657a.547.547 0 00-.548.547v.864c0 .303.245.547.548.547h2.657v11.887c.013 1.647.322 2.839.949 3.644.65.837 1.707 1.262 3.139 1.262.927 0 1.581-.074 1.998-.226a.547.547 0 00.351-.608l-.144-.818a.55.55 0 00-.615-.446" id="Fill-14" fill="#7AAC41"/><path d="M251.88 18.404c-.424-.696-1.104-1.298-2.02-1.792-.872-.47-2.06-.88-3.532-1.221-1.386-.32-2.448-.655-3.157-.994-.663-.317-1.14-.666-1.415-1.035-.258-.345-.389-.853-.389-1.508 0-.818.364-1.487 1.11-2.045.787-.587 1.89-.885 3.279-.885 1.447 0 2.626.354 3.505 1.052.853.676 1.267 1.49 1.267 2.487 0 .302.245.547.547.547h.881a.547.547 0 00.547-.547c0-1.686-.641-3.046-1.906-4.043-1.227-.965-2.855-1.455-4.841-1.455-1.835 0-3.357.453-4.522 1.347-1.211.927-1.825 2.13-1.825 3.574 0 1.422.49 2.562 1.457 3.388.923.789 2.475 1.407 4.745 1.89 3.33.704 4.95 1.933 4.95 3.76 0 .85-.403 1.563-1.231 2.18-.866.646-2.025.973-3.446.973-1.567 0-2.814-.31-3.705-.92-.85-.585-1.3-1.38-1.373-2.432a.547.547 0 00-.546-.509h-.865a.547.547 0 00-.547.547c0 1.566.676 2.859 2.008 3.844 1.281.949 2.973 1.43 5.028 1.43 1.927 0 3.52-.457 4.732-1.358 1.264-.938 1.904-2.196 1.904-3.74 0-.985-.217-1.837-.64-2.535" id="Fill-15" fill="#7AAC41"/></g></g></g></svg>