<svg xmlns="http://www.w3.org/2000/svg" version="1.1" id="svg4170" viewBox="0 0 20 21" height="21" width="20"><g transform="translate(-1.97 -10.698) scale(.15258)" id="layer1"><path id="path7" d="M118.406 74.265c-3.439-1.9-13.303-.724-25.158 2.896-20.814 14.208-38.28 35.113-39.547 68.687-.18.815-2.262-.09-2.715-.362-5.61-10.769-7.783-22.081-3.167-38.37.905-1.448-1.991-3.258-2.534-2.715-.996.995-5.34 5.61-8.145 10.497-14.117 24.434-4.887 55.837 19.819 69.592 24.706 13.756 55.836 4.887 69.592-19.818 15.927-28.507 1.176-85.249-8.145-90.407z" class="st0" fill="#f0f5fa" fill-opacity="1"/></g></svg>