<svg width="24" height="24" viewBox="0 0 24 24" fill="none" xmlns="http://www.w3.org/2000/svg"><path d="M11.245.869a1 1 0 011.51 0l1.96 2.255a1 1 0 00.911.332l2.95-.468a1 1 0 011.157.97l.052 2.987a1 1 0 00.485.84l2.561 1.539a1 1 0 01.262 1.486l-1.88 2.322a1 1 0 00-.169.955l.973 2.825a1 1 0 01-.755 1.307l-2.933.57a1 1 0 00-.742.623l-1.07 2.79a1 1 0 01-1.42.516l-2.612-1.449a1 1 0 00-.97 0l-2.613 1.45a1 1 0 01-1.418-.517l-1.07-2.79a1 1 0 00-.744-.623l-2.932-.57a1 1 0 01-.755-1.307l.973-2.825a1 1 0 00-.168-.955L.907 10.81a1 1 0 01.262-1.486L3.73 7.786a1 1 0 00.485-.84l.052-2.988a1 1 0 011.156-.97l2.951.468a1 1 0 00.912-.332L11.246.87z" fill="url(#paint0_linear)"/><path d="M11.526 5.416a.5.5 0 01.948 0l1.247 3.722a.5.5 0 00.47.341l3.925.035a.5.5 0 01.293.902l-3.155 2.336a.5.5 0 00-.18.552l1.18 3.744a.5.5 0 01-.767.558l-3.197-2.28a.5.5 0 00-.58 0l-3.197 2.28a.5.5 0 01-.767-.558l1.18-3.744a.5.5 0 00-.18-.552l-3.155-2.336a.5.5 0 01.293-.902L9.81 9.48a.5.5 0 00.47-.341l1.246-3.722z" fill="#fff"/><defs><linearGradient id="paint0_linear" x1="12" y1="0" x2="12" y2="24" gradientUnits="userSpaceOnUse"><stop stop-color="#3E4445"/><stop offset="1"/></linearGradient></defs></svg>