<svg width="24" height="24" viewBox="0 0 24 24" fill="none" xmlns="http://www.w3.org/2000/svg">
<path d="M11.2451 0.868799C11.6438 0.409969 12.3562 0.409968 12.7549 0.868799L14.7144 3.1241C14.9407 3.38452 15.2852 3.50992 15.626 3.45587L18.5767 2.98779C19.1771 2.89256 19.7228 3.35049 19.7333 3.95822L19.7847 6.94546C19.7906 7.2904 19.9739 7.60792 20.2697 7.78554L22.831 9.32369C23.3521 9.63662 23.4758 10.3382 23.0932 10.8105L21.2124 13.1319C20.9952 13.4 20.9316 13.761 21.044 14.0872L22.0173 16.9119C22.2154 17.4865 21.8592 18.1035 21.2625 18.2193L18.3295 18.7887C17.9909 18.8545 17.71 19.0901 17.5865 19.4122L16.5164 22.2017C16.2987 22.7692 15.6293 23.0129 15.0978 22.7181L12.485 21.269C12.1833 21.1017 11.8167 21.1017 11.515 21.269L8.90225 22.7181C8.3707 23.0129 7.70125 22.7692 7.48356 22.2017L6.41355 19.4122C6.28999 19.0901 6.00912 18.8545 5.67045 18.7887L2.73753 18.2193C2.14084 18.1035 1.78464 17.4865 1.98266 16.9119L2.95604 14.0872C3.06843 13.761 3.00477 13.4 2.78759 13.1319L0.906826 10.8105C0.524193 10.3382 0.647902 9.63662 1.16899 9.32369L3.7303 7.78554C4.02606 7.60792 4.20938 7.2904 4.21532 6.94546L4.26674 3.95823C4.2772 3.35049 4.82294 2.89256 5.42326 2.98779L8.37404 3.45587C8.71478 3.50992 9.05931 3.38452 9.28558 3.1241L11.2451 0.868799Z" fill="url(#paint0_linear)"/>
<path d="M11.5259 5.41568C11.6782 4.96073 12.3218 4.96073 12.4741 5.41568L13.7207 9.13788C13.7884 9.34014 13.977 9.47716 14.1903 9.47908L18.1155 9.51442C18.5953 9.51874 18.7942 10.1307 18.4086 10.4162L15.2538 12.752C15.0823 12.879 15.0103 13.1007 15.0744 13.3041L16.2537 17.0481C16.3979 17.5058 15.8773 17.884 15.4866 17.6055L12.2902 15.3269C12.1166 15.2031 11.8834 15.2031 11.7098 15.3269L8.5134 17.6055C8.12272 17.884 7.60212 17.5058 7.74627 17.0481L8.92562 13.3041C8.9897 13.1007 8.91767 12.879 8.74624 12.752L5.59143 10.4162C5.20583 10.1307 5.40468 9.51874 5.88445 9.51442L9.80969 9.47908C10.023 9.47716 10.2116 9.34014 10.2793 9.13788L11.5259 5.41568Z" fill="white"/>
<defs>
<linearGradient id="paint0_linear" x1="12" y1="0" x2="12" y2="24" gradientUnits="userSpaceOnUse">
<stop stop-color="#3E4445"/>
<stop offset="1"/>
</linearGradient>
</defs>
</svg>
